<svg width="12" height="13" viewBox="0 0 12 13" fill="none" xmlns="http://www.w3.org/2000/svg">
<rect x="1.5" y="1.61011" width="9" height="9" rx="4.5" fill="#3956DE" fill-opacity="0.4"/>
<path d="M6.1 8.50783C5.75625 8.50783 5.44233 8.42403 5.15824 8.25641C4.87415 8.08596 4.64687 7.85869 4.47642 7.5746C4.30881 7.29051 4.225 6.97658 4.225 6.63283C4.225 6.28624 4.30881 5.97232 4.47642 5.69107C4.64687 5.40698 4.87415 5.18113 5.15824 5.01352C5.44233 4.84306 5.75625 4.75783 6.1 4.75783C6.44659 4.75783 6.76051 4.84306 7.04176 5.01352C7.32585 5.18113 7.5517 5.40698 7.71932 5.69107C7.88977 5.97232 7.975 6.28624 7.975 6.63283C7.975 6.97658 7.88977 7.29051 7.71932 7.5746C7.5517 7.85869 7.32585 8.08596 7.04176 8.25641C6.76051 8.42403 6.44659 8.50783 6.1 8.50783Z" fill="black"/>
<rect x="1.5" y="1.61011" width="9" height="9" rx="4.5" stroke="white" stroke-width="3"/>
</svg>
