<svg width="21" height="21" viewBox="0 0 21 21" fill="none" xmlns="http://www.w3.org/2000/svg">
<g clip-path="url(#clip0_2_422)">
<path d="M19.6895 2.59798C18.8915 3.16088 18.008 3.5914 17.0729 3.87298C16.571 3.2959 15.904 2.88689 15.1621 2.70125C14.4201 2.51561 13.6391 2.56231 12.9246 2.83502C12.2101 3.10774 11.5966 3.59331 11.167 4.22608C10.7375 4.85884 10.5126 5.60826 10.5229 6.37298V7.20631C9.0584 7.24429 7.60726 6.91949 6.29871 6.26085C4.99015 5.60221 3.8648 4.63018 3.02287 3.43131C3.02287 3.43131 -0.310465 10.9313 7.18953 14.2646C5.47331 15.4296 3.42883 16.0138 1.3562 15.9313C8.8562 20.098 18.0229 15.9313 18.0229 6.34798C18.0221 6.11586 17.9998 5.88431 17.9562 5.65631C18.8067 4.81756 19.4069 3.75857 19.6895 2.59798Z" stroke="#9B9BAE" stroke-width="1.25" stroke-linecap="round" stroke-linejoin="round"/>
</g>
<defs>
<clipPath id="clip0_2_422">
<rect width="20" height="20" fill="white" transform="translate(0.522827 0.0979919)"/>
</clipPath>
</defs>
</svg>
