<svg width="25" height="25" viewBox="0 0 25 25" fill="none" xmlns="http://www.w3.org/2000/svg">
<g clip-path="url(#clip0_2_321)">
<path d="M21.17 11.5303C21.1734 12.8502 20.8651 14.1522 20.27 15.3303C19.5644 16.742 18.4797 17.9295 17.1374 18.7596C15.7951 19.5897 14.2482 20.0297 12.67 20.0303C11.3501 20.0337 10.0481 19.7254 8.86998 19.1303L3.16998 21.0303L5.06998 15.3303C4.47491 14.1522 4.16654 12.8502 4.16998 11.5303C4.17059 9.95206 4.61059 8.40515 5.4407 7.06285C6.27081 5.72055 7.45824 4.63587 8.86998 3.9303C10.0481 3.33523 11.3501 3.02686 12.67 3.0303H13.17C15.2543 3.14529 17.223 4.02506 18.6991 5.50116C20.1752 6.97726 21.055 8.94595 21.17 11.0303V11.5303Z" fill="white" fill-opacity="0.15" stroke="white" stroke-width="2" stroke-linecap="round" stroke-linejoin="round"/>
</g>
<defs>
<clipPath id="clip0_2_321">
<rect width="24" height="24" fill="white" transform="translate(0.169983 0.0302734)"/>
</clipPath>
</defs>
</svg>
