<svg width="21" height="21" viewBox="0 0 21 21" fill="none" xmlns="http://www.w3.org/2000/svg">
<g clip-path="url(#clip0_2_428)">
<path d="M14.8695 1.76465H6.53617C4.23499 1.76465 2.36951 3.63013 2.36951 5.93131V14.2646C2.36951 16.5658 4.23499 18.4313 6.53617 18.4313H14.8695C17.1707 18.4313 19.0362 16.5658 19.0362 14.2646V5.93131C19.0362 3.63013 17.1707 1.76465 14.8695 1.76465Z" stroke="#9B9BAE" stroke-width="1.25" stroke-linecap="round" stroke-linejoin="round"/>
<path d="M14.0363 9.573C14.1391 10.2665 14.0206 10.9748 13.6977 11.5972C13.3748 12.2195 12.8639 12.7242 12.2376 13.0394C11.6113 13.3546 10.9016 13.4643 10.2094 13.3529C9.51719 13.2416 8.87772 12.9147 8.38195 12.419C7.88619 11.9232 7.55937 11.2837 7.44798 10.5915C7.33659 9.89929 7.44631 9.18958 7.76153 8.56331C8.07674 7.93704 8.58141 7.42612 9.20374 7.1032C9.82607 6.78028 10.5344 6.66182 11.2279 6.76467C11.9354 6.86957 12.5903 7.19922 13.096 7.70492C13.6017 8.21062 13.9314 8.86556 14.0363 9.573Z" stroke="#9B9BAE" stroke-width="1.25" stroke-linecap="round" stroke-linejoin="round"/>
</g>
<defs>
<clipPath id="clip0_2_428">
<rect width="20" height="20" fill="white" transform="translate(0.702881 0.0979919)"/>
</clipPath>
</defs>
</svg>
